<svg xmlns="http://www.w3.org/2000/svg" width="78.767" height="95.282" viewBox="0 0 78.767 95.282"><defs><style>.a{fill:red;}.b{fill:#232834;}.c{fill:#fff;}.d{fill:#ffce00;}.e{fill:#ff005c;}.f{fill:#282828;}</style></defs><g transform="translate(-19.7 -10)"><g transform="translate(30.181 29.374)"><path class="a" d="M55.044,97.314,26.3,81.91V36.81L55.044,22.2,83.787,36.81V81.752Zm-27-16.516,27,14.451,27-14.451V37.922l-27-13.816-27,13.816V80.8Z" transform="translate(-26.3 -22.2)"/></g><g transform="translate(31.134 30.327)"><path class="b" d="M26.9,37.092,54.691,22.8,82.481,37.092v43.83L54.691,95.85,26.9,80.922Z" transform="translate(-26.9 -22.8)"/></g><g transform="translate(31.134 30.327)"><path class="c" d="M54.691,23.753l27,13.816V80.446l-27,14.451-27-14.451V37.569l27-13.816m0-.953L26.9,37.092V81.081L54.691,96.009,82.481,81.081V37.092L54.691,22.8Z" transform="translate(-26.9 -22.8)"/></g><g transform="translate(33.675 10)"><path class="a" d="M61.531,94.007l.794-8.734-.794.953L61.69,84h-.159l-1.906,2.223v-.318l-.159.318-1.112-1.112c0,.159-.159.159-.318.318l-.159.159c-.159.159-.159.318-.318.476l-.476.476-.159.159a1.306,1.306,0,0,1-.953.635l-1.906,1.429.159-.794-.794.159L52.8,89.72,52,86.861l-.318.476-.318-.635-.635.318.318-1.27a1.626,1.626,0,0,1-.953-.794l-1.27.953-.635,1.112-.318-2.858v.318L46.127,83.05l-.794,3.017-.953-3.335h-.318l.159,4.129-.476-1.112v.318l-.953-2.223-.318.476L42,82.1l-3.97-7.464a18.926,18.926,0,0,1-1.27-3.176l-.794-.953-.476-.476-.635,3.494-1.112-3.97a2.257,2.257,0,0,1-.318.953l-.318.476L31.2,76.7l-.159-2.541L29.929,75.9l.159-2.064-1.588,5.4.794-11.593-.159.318.318-2.382.159-1.112a7.193,7.193,0,0,1,.476-2.541V61.77l.159-.794c.159-.635.159-1.27.318-1.906,0-.159.159-.318.159-.476v-.159a3.659,3.659,0,0,1,.635-1.747c.159-.159.318-.476.476-.635h-.318a.156.156,0,0,1,.159-.159c.159-.159.159-.476.318-.635l-.794.318,1.588-2.223v-.159l.159-.159c.159-.159.159-.318.318-.476l.159-.318a29.644,29.644,0,0,0-2.382-5.082h0a6.905,6.905,0,0,1-.635-1.112,2.7,2.7,0,0,1,.318-2.223,2.788,2.788,0,0,1,.794-.635,13.383,13.383,0,0,1,2.223-.953h.318a5.357,5.357,0,0,1,.635-1.906.554.554,0,0,1,.159-.318c0-.159.159-.476.159-.635a6.536,6.536,0,0,1,.476-1.27,8.294,8.294,0,0,1,1.27-1.747l.476-.476a2.944,2.944,0,0,0,.318-1.112,10.194,10.194,0,0,1,1.906-3.97,20.737,20.737,0,0,1,5.082-4.129c.318-.318.794-.476,1.112-.794a1.2,1.2,0,0,1,.635-.318c.159-.159.635-.318.794-.476V23.657c.159-.635.318-1.429.476-2.064v-.318c0-.159.159-.476.159-.635V20.8l.159-.159a4.637,4.637,0,0,0-.318-1.429L43.586,10,49.3,16.352h0l2.223,1.429a2.7,2.7,0,0,1,.953.953v.159h.159a11.779,11.779,0,0,1,3.176,2.541l.159.159c.159.318.476.476.635.635s.476.159.794.318c.159,0,.159,0,.318.159a25.088,25.088,0,0,1,5.717,3.176l1.747,1.27c2.223,1.588,5.241,3.652,6.035,7.3v.318c0,.318.159.476.159.635.159.159.318.476.635.794l.635.635a5.571,5.571,0,0,1,.794,1.27c0,.159.159.159.159.318s.159.159.159.318a7.742,7.742,0,0,1,.476,1.112,5.642,5.642,0,0,1,.318,1.588v.794h.159a8.486,8.486,0,0,1,2.223.953c.159.159.476.318.794.635a2.231,2.231,0,0,1,.318,2.223c-.159.476-.318.953-.635,1.112h0a23.267,23.267,0,0,0-2.223,4.447,10.943,10.943,0,0,0,.476,1.27v.159a5.335,5.335,0,0,1,.794,2.223h0a3.192,3.192,0,0,1,.635,1.27h0a5.641,5.641,0,0,1,.635,1.429v.794a.492.492,0,0,0-.159-.318h0l.159.635h0a4.434,4.434,0,0,1,.953,2.858v.159c.159.318.159.476.318.794a2.014,2.014,0,0,0,.159.953v.476l.953,7.464L79,69.869h0l-.476,1.27-.159.635v-.159L77.729,73.2,77.57,75.11l-2.382-4.764c-.159-.159-.159-.318-.159-.635L77.412,81.3l-4.605-9.369-.159.476v2.382L71.854,74l-.476,1.112v-.318l-.794,1.588-.159-.953L69,77.015v-.159L68.042,78.6l-1.429,4.764L65.978,81.3v0l-.318.159ZM53.909,86.7l.318.318h0c-.159-.159-.318-.318-.318-.476Zm5.082-2.858h.159v-.159h-.635v.159c.159-.159.318,0,.476,0v-.318h0Zm-4.764-1.588a.583.583,0,0,1,.476.159.554.554,0,0,1,.318.159,2.192,2.192,0,0,1,.476-.635c.159-.159.318-.159.476-.318l.635-1.27.476.953a2.257,2.257,0,0,1,.953-.318l.635-.476.159.318h.159l1.429-1.588.318.635h.794a.156.156,0,0,1,.159-.159c0-.318.159-.476.159-.635a2.788,2.788,0,0,1,.635-.794,1.458,1.458,0,0,1,.635-.953,2.848,2.848,0,0,1,.794-1.112.554.554,0,0,1,.318-.159v-.318h0a1.526,1.526,0,0,1,.953-1.429h.159a1.632,1.632,0,0,1,1.747-1.588h.159a1.084,1.084,0,0,1,.476-.794c.159-.159.318-.318.476-.318V71.14a1.787,1.787,0,0,1,1.112-1.747,2.442,2.442,0,0,1,.635-.953h.159a2.534,2.534,0,0,1,.476-1.27,1.607,1.607,0,0,1,1.112-.635l.318-.476a2.36,2.36,0,0,1,.318-1.429,1.626,1.626,0,0,1,.953-.794,1.24,1.24,0,0,1,.635-.635,2.257,2.257,0,0,1,.953-.318v-.794c-.159-.159-.318-.476-.476-.635a1.519,1.519,0,0,1-.318-1.112,2.257,2.257,0,0,1,.318-.953,3.015,3.015,0,0,1-.476-1.429v-.476c-.159,0-.159-.159-.318-.318a1.889,1.889,0,0,1-.635-1.747v-.159a2.992,2.992,0,0,1-.635-1.429v-.635l-.318-.318c0-.159-.159-.159-.159-.318l-1.429-1.27,1.747-.476a33.5,33.5,0,0,1,2.541-5.4c-.318-.159-.635-.159-.953-.318a4.637,4.637,0,0,0-1.429-.318L70.9,44.461l.318-1.429c0-.159.159-.318.159-.476V42.4h0V41.92c0-.318-.159-.635-.159-.953,0-.159-.159-.318-.318-.476s-.159-.318-.318-.476a.554.554,0,0,0-.159-.318c-.159-.318-.159-.476-.318-.635l-.476-.476a4.977,4.977,0,0,1-1.27-1.747,4.909,4.909,0,0,1-.318-1.27V35.25c-.476-2.382-2.382-3.811-4.764-5.4l-1.747-1.27a22.055,22.055,0,0,0-4.923-2.858H56.45a5.641,5.641,0,0,1-1.429-.635,4.833,4.833,0,0,1-1.27-1.27l-.159-.159a9.582,9.582,0,0,0-1.27-1.27L52,26.833l-.476-.953v.476l-.476-.476v3.97l-1.429-3.811a.156.156,0,0,1-.159.159A3.655,3.655,0,0,1,47.4,27.945c-.159.159-.318.159-.476.318-.318.318-.794.476-1.112.794a18.729,18.729,0,0,0-4.288,3.494,6.373,6.373,0,0,0-1.27,2.541,5.22,5.22,0,0,1-1.112,2.541l-.635.635a2.788,2.788,0,0,0-.635.794,1.19,1.19,0,0,0-.159.794c-.159.318-.159.635-.318.953-.159.159-.159.476-.318.635s-.159.476-.318.635h0a1.727,1.727,0,0,1,.159.794l.159,1.429-1.429.318c-.476.159-1.112.318-1.588.476-.318.159-.635.159-.953.318a21.064,21.064,0,0,1,2.541,5.4h0l1.429.476-.635.953v.476a1.679,1.679,0,0,1-.953,1.112,2.014,2.014,0,0,1-.159.953,5.641,5.641,0,0,1-.635,1.429,1.687,1.687,0,0,1,.159,1.27,2.83,2.83,0,0,1-1.588,1.906h0a1.523,1.523,0,0,1,.318,1.429,2.692,2.692,0,0,1-.953,1.27h0v.318h.318l.794-.794.318.794a1.707,1.707,0,0,1,1.27,1.429,5.294,5.294,0,0,1,0,1.588h.159c.159,0,.318.159.476.159a1.918,1.918,0,0,1,1.112,1.112v.159h.318A1.787,1.787,0,0,1,38.5,68.6h0c.159.476.159.953.318,1.429h0c.159,0,.159,0,.318.159a2.3,2.3,0,0,1,1.112,1.588,2.849,2.849,0,0,1,.953,1.588c.159.318.159.476.318.794.159,0,.159.159.318.318A1.758,1.758,0,0,1,42.951,75.9a1.236,1.236,0,0,1,.476,1.112l.159.953c.159,0,.159-.159.318-.159a1.717,1.717,0,0,1,2.064.318l.159.159c.318,0,.476.159.794.318l.159.159a1.19,1.19,0,0,1,.794-.159,1.886,1.886,0,0,1,1.588,1.27c.159.159.476.318.476.476.159.159.476.159.635.476.318,0,.476.159.794.318.159,0,.159.159.318.318a1.754,1.754,0,0,1,1.27,0,1.585,1.585,0,0,1,.794.635A1.229,1.229,0,0,0,54.226,82.256ZM43.9,81.3h.476l-.159-.159h.159v-.318H43.9v.318h-.159Zm-.159,0H43.9v-.159h-.159Zm-.159-.159Zm1.112-.318a.156.156,0,0,1,.159.159v-.159Zm.318-.159a.156.156,0,0,0,.159.159h0a.156.156,0,0,0-.159-.159Zm.159,0Zm-.635.159ZM64.707,75.9ZM39.3,68.758Zm31.443-1.429ZM34.693,50.971ZM71.377,42.4ZM46.762,24.928Z" transform="translate(-28.5 -10)"/></g><g transform="translate(35.104 13.97)"><path class="c" d="M62.431,86.026l.476-4.288h0l-.794.794.159-1.112h0c-.159.159-.318.159-.476.318l-1.27.318-.953,1.112-.318-1.112v.159l-.635,1.27-.794-.794-.159-.159-.159.159-.476.953a.554.554,0,0,1-.318.159.342.342,0,0,1-.318.318c-.159.159-.318.318-.476.318L55.6,84.6a.99.99,0,0,1-.794.476l-.476.318v-.318c-.159.159-.318.159-.476.318l-.794.159-.159-.794c0-.318-.159-.635-.159-.953l-.794,1.906-.318-1.27h-.476A.156.156,0,0,1,51,84.279l-.159.159L51,83.962,50.68,83.8a1.608,1.608,0,0,1-.953-1.429l-.953.794.159-.953c-.159,0-.159-.159-.318-.159l-.476,1.112-.318-1.906a1.24,1.24,0,0,1-.635-.635h0c-.318.159-.476,0-.635,0h-.159l-.159.159h0v.476l-1.27-1.112h0l-.318,1.429-.318-1.27h-.159l-.159.318-.794-.159c-.159,0-.476-.159-.476-.318l-.159.318v.794l-.159-.476-.159.159-.159-.953-.476-1.112c-.159-.159-.159-.318-.318-.635l-.318-.794a.554.554,0,0,0-.159-.318l-.476-1.112v-.159l-.159.159.318,1.429L38.134,73a18.929,18.929,0,0,1-1.27-3.176l-.953-1.112L34.8,67.764c-.159-.159-.476-.318-.635-.635l-.159,1.27-.953-3.176c-.159.635-.318,1.112-.476,1.588l-.159.476a2.36,2.36,0,0,1-.318,1.429l-.318.635-.476,1.588V70.3l-.794,1.27L30.67,68.4a7.122,7.122,0,0,0-.159-1.747L29.4,70.464,29.876,63a12.258,12.258,0,0,1,.318-2.382v-.159l.159-.794c.159-.635.159-1.27.318-1.747,0-.159.159-.318.159-.635v-.318a2.367,2.367,0,0,1,.476-1.27,2.788,2.788,0,0,1,.635-.794l-.318-.159a.156.156,0,0,1,.159-.159c.159-.159.159-.476.318-.635.159-.476.318-.794.476-1.27,0-.159.159-.159.159-.318h-.159l.159-.318v-.318c.159-.159.159-.318.318-.476l.476-.635c0-.159-.159-.159-.159-.318a20.036,20.036,0,0,0-2.541-5.241h0l-.476-.953a1.847,1.847,0,0,1,.318-1.588l.476-.476a9.714,9.714,0,0,1,1.906-.794c.318-.159.635-.159.794-.318a3.646,3.646,0,0,1,.635-2.223.583.583,0,0,0,.159-.476,1.19,1.19,0,0,0,.159-.794c.159-.318.159-.794.318-1.112a5.581,5.581,0,0,1,1.112-1.429l.476-.476a3.924,3.924,0,0,0,.635-1.429,8.632,8.632,0,0,1,1.747-3.652,19.339,19.339,0,0,1,4.923-3.97c.318-.318.794-.476,1.112-.794.159-.159.318-.159.635-.318a2.025,2.025,0,0,0,1.112-.794c.159-.159,0-.476,0-.794v-.953c.159-.635.318-1.27.476-2.064v-.318c0-.159.159-.476.159-.635v-.159c0-.159,0-.318.159-.318v.318l.318-.159a2.561,2.561,0,0,0-.476-1.429L45.6,12.5l3.335,3.652c.159.159.318.318.318.476v-.635l1.112.635c.318.159.476.476.635.635,0,.159.159.159.159.318a.554.554,0,0,0,.318.159h0a9.486,9.486,0,0,1,2.858,2.382l.159.159c.318.318.476.635.794.794l.953.476a.156.156,0,0,1,.159.159,19.783,19.783,0,0,1,5.4,3.017L63.543,26c2.064,1.429,4.923,3.494,5.717,6.829v.318a6.877,6.877,0,0,0,.159.794,4.21,4.21,0,0,0,.794.953c.159.159.476.318.635.635a3.98,3.98,0,0,1,.635,1.112c0,.159.159.159.159.318s.159.159.159.318l.476.953c.159.476.159.953.318,1.429v.318a1.82,1.82,0,0,1,0,.953h0c.318,0,.476.159.794.159a9.715,9.715,0,0,1,1.906.794c.159.159.318.159.476.476a1.847,1.847,0,0,1,.318,1.588l-.476.953h0a28.146,28.146,0,0,0-2.382,4.923,2.561,2.561,0,0,1,.476,1.429v.318A4.68,4.68,0,0,1,74.5,53.63v.318a1.442,1.442,0,0,1,.476,1.112v.318a1.442,1.442,0,0,1,.476,1.112v.794l-.159.159c0,.159.159.159.159.318a4.279,4.279,0,0,1,.794,2.382v.318c.159.159.159.476.318.794v1.429l.476,3.653-.476-.794-.159.794a2.2,2.2,0,0,1,0,1.429l.318,2.7-.318-.635-.159,1.112-1.112-2.382a3.737,3.737,0,0,1-.318-1.27v-.159a3.737,3.737,0,0,0-.318-1.27h-.159v.476a1.337,1.337,0,0,1-.635,1.112.492.492,0,0,0-.159.318H73.23v.159L74.342,73.8,71.96,68.875l-.159.318c0,.159-.159.318-.159.476s-.159.318-.159.476l-.476.953v.635l-.318-.318-.635,1.27v-.953a3.015,3.015,0,0,1-.476,1.429l-.794.953-.318-.318-.635.794h0l-.953,2.064h0l-.794,2.382-.318-.953-.159.159-.159.159v-.159H65.29V78.4h-.159a.554.554,0,0,1-.159.318h0ZM53.7,84.279c0,.159.159.476.318.476h.159l-.159-.159h-.159l-.159-.318Zm.953-2.064h.159q.238-.476.476-.476A.825.825,0,0,1,55.6,81.1a.583.583,0,0,1,.476-.159l.159-.159.159.318h.159c.159,0,.159-.159.318-.159.318-.318.635-.476.953-.318h.159l.159-.159.159.318a.825.825,0,0,1,.635-.318H59.1a.156.156,0,0,1,.159-.159l.794-.794.159.476c0-.159.159-.159.318-.318a.709.709,0,0,1,.794,0h.159c0-.159.159-.159.318-.159a.156.156,0,0,0,.159-.159c0-.159.159-.318.318-.476,0-.318.159-.476.159-.635.159-.159.318-.476.635-.476v-.318a1.118,1.118,0,0,1,.635-.794.951.951,0,0,1,.476-.953.583.583,0,0,1,.476-.159v-.953a.873.873,0,0,1,.476-.794.583.583,0,0,1,.476-.159v-.476a1.025,1.025,0,0,1,.953-.953h0c.318,0,.476.159.794.318l.159-.794a.634.634,0,0,1,.318-.635,1.213,1.213,0,0,1,.794-.318h0v-.953a.893.893,0,0,1,.794-.953h.159v-.318c0-.318.159-.476.476-.635a.583.583,0,0,1,.476-.159,1.711,1.711,0,0,1,.318-1.27c.159-.318.476-.318.794-.318H71.8l.318-.635.318.635h.318c-.159-.476-.635-1.588-.318-2.223a.873.873,0,0,1,.794-.476c.159-.318.159-.476.476-.635a1.19,1.19,0,0,1,.794-.159,1.719,1.719,0,0,1,.794.635.156.156,0,0,0,.159.159.342.342,0,0,1,.318-.318l-.476-.953c0-.159-.159-.318-.159-.635,0-.159.159-.318.318-.476a4.211,4.211,0,0,1-.794-.953c0-.159-.159-.318-.159-.635s.159-.476.318-.794l.159-.159a4.967,4.967,0,0,1-.794-1.588c0-.318,0-.476.159-.635-.159-.159-.476-.318-.635-.476a1.074,1.074,0,0,1-.476-.953c0-.159.159-.318.159-.476A3.071,3.071,0,0,1,72.595,53v-.476a.156.156,0,0,1,.159-.159l-.635-.635c0-.159-.159-.159-.159-.318l-.476-.953,1.112-.318a22.538,22.538,0,0,1,2.7-5.558h0c.159-.159.318-.318.318-.476v-.159h-.159a6.637,6.637,0,0,0-1.588-.635,4.637,4.637,0,0,0-1.429-.318l-.794-.159.159-.794a.583.583,0,0,1,.159-.476V40.45c0-.318-.159-.794-.159-1.112-.159-.159-.159-.476-.318-.635a.583.583,0,0,1-.159-.476.554.554,0,0,0-.159-.318c-.159-.318-.318-.476-.476-.794l-.476-.476A4.945,4.945,0,0,1,69.1,35.209c-.159-.318-.159-.794-.318-1.112V33.78c-.635-2.858-3.017-4.605-5.082-5.876l-1.747-1.27a23.07,23.07,0,0,0-5.082-2.858h-.159a3.192,3.192,0,0,1-1.27-.635,7.337,7.337,0,0,1-1.112-1.112l-.159-.159a9.217,9.217,0,0,0-2.382-2.064h-.159l-.159,2.858-1.429-1.429v.318l-.318-.476v3.017l-.953-2.541c0,.318-.159.635-.159.953v.635a5.957,5.957,0,0,1-.159,1.588,3.882,3.882,0,0,1-1.747,1.429c-.159.159-.318.159-.476.318-.318.318-.794.476-1.112.794a20.241,20.241,0,0,0-4.447,3.652,6.073,6.073,0,0,0-1.429,2.858A3.99,3.99,0,0,1,38.293,36l-.476.476a4.21,4.21,0,0,0-.794.953c-.159.318-.159.476-.318.794s-.159.635-.318.953c0,.159-.159.318-.318.635a5.764,5.764,0,0,0-.476,1.112h0l.159.159a.583.583,0,0,1,.159.476l.159.635-.635.159c-.476.159-1.112.318-1.588.476a6.637,6.637,0,0,0-1.588.635H32.1v.159c0,.159.159.318.318.476h0a25.652,25.652,0,0,1,2.7,5.558h.159l.635.159-.318.318v.476c0,.318-.318.476-.635.635H34.8c-.159.159-.159.318-.318.476.159.318,0,.794,0,.953a5.87,5.87,0,0,1-.794,1.747l.159.159a.7.7,0,0,1,.159.794c-.159.794-.794,1.112-1.27,1.429-.159.159-.476.318-.635.476a.492.492,0,0,1-.159.318v.159c.159,0,.318,0,.318.159a.764.764,0,0,1,.318.953,1.055,1.055,0,0,1-.635.794h-.159a.825.825,0,0,0-.318.635,1,1,0,0,1,.159,1.112c0,.318-.159.476-.159.794a.554.554,0,0,1-.159.318h.159v-.159a1.2,1.2,0,0,1,.159-.635.858.858,0,0,1,1.27-.318h0a.156.156,0,0,0,.159-.159l.159-.159v.159h.159a1.173,1.173,0,0,1,.953.794,4.318,4.318,0,0,1,0,1.429v.794a.483.483,0,0,1,.635,0c.159,0,.159.159.318.159a1.055,1.055,0,0,1,.794.635c0,.159.159.318.159.476h.635c.635.159.635.794.635,1.112h0c.159.476.159,1.112.318,1.588,0,.159.159.318.159.476h.476c.476.159.635.635.635,1.429.476.159.794.794.953,1.429a2.3,2.3,0,0,1,.318,1.112h.159l.318.318a.889.889,0,0,1,.794.953v.159h0a.873.873,0,0,1,.476.794l.159,1.906a1.19,1.19,0,0,1,.794-.159h0a.583.583,0,0,1,.476-.159c.318-.318.794-.159,1.27.159.159.159.159.159.159.318a.955.955,0,0,1,.635.159.933.933,0,0,1,.318.794h.159a.838.838,0,0,1,.794-.635c.635,0,.794.635.953.953a1.24,1.24,0,0,1,.635.635h.159a.851.851,0,0,1,.635.476.874.874,0,0,1,.794.318c.159.159.476.318.476.635v.159a.342.342,0,0,1,.318-.318,1.012,1.012,0,0,1,.953,0c.318.159.476.318.476.635h0l.159.159h.318a.483.483,0,0,1,.635,0c.794.794,1.112.953,1.27,1.27Zm4.129-.476h.476c0-.159,0-.159-.159-.318L58.62,81.1v.159h0c.159,0,.159.159.318.159Zm5.082-5.4Zm6.987-9.846ZM31.941,43.626Zm43.195,0Z" transform="translate(-29.4 -12.5)"/></g><g transform="translate(36.692 18.734)"><path class="b" d="M75.342,61.871c.159,0,.159,0,.159.159.318.635.635,1.112.953,1.747a5.323,5.323,0,0,0,0-1.588c0-.159-.159-.318-.159-.476-.318-.635-.794-1.112-1.112-1.747v-.159l.159-.159.159.159.953,1.747a4.4,4.4,0,0,0-.159-1.429,1.945,1.945,0,0,0-.953-1.429,4.21,4.21,0,0,1-.794-.953v-.159a.156.156,0,0,1,.159-.159h0l1.429,1.429a4.5,4.5,0,0,0-.635-2.064c-.476-.635-1.112-1.112-1.27-1.906,0-.159,0-.318.159-.318s.159.159.159.318a5.286,5.286,0,0,0,.953,1.588,1.91,1.91,0,0,1-.318-1.27,1.25,1.25,0,0,0-.794-1.112,3.98,3.98,0,0,1-1.112-.635c-.159,0-.159-.159-.159-.318s1.27.635,1.429.794c-.318-1.27-1.747-1.588-2.064-2.858v-.159s.159-.159.159,0l.159.159A2.534,2.534,0,0,0,73.912,52.5a4.922,4.922,0,0,0-.953-2.064,7.338,7.338,0,0,1-1.112-1.112l-.159-.159h.318a6.907,6.907,0,0,0,.953,1.112,5.641,5.641,0,0,0-.635-1.429h0a28.155,28.155,0,0,1,2.541-5.4c.159-.318.318-.476.476-.794a.7.7,0,0,0-.159-.794l-.318-.318a8.511,8.511,0,0,0-1.747-.794l-1.429-.476c0-.159,0-.159.159-.318a.554.554,0,0,1,.159-.318V39c-.159-.476-.159-1.112-.318-1.588a6.905,6.905,0,0,0-.635-1.112,8.865,8.865,0,0,0-.794-1.27c-.476-.635-1.27-1.112-1.588-1.747-.159-.318-.159-.794-.318-1.27-.635-3.017-3.176-4.923-5.4-6.352l-1.747-1.27a24.857,24.857,0,0,0-5.241-3.017,3.192,3.192,0,0,1-1.27-.635,7.336,7.336,0,0,1-1.112-1.112,7.263,7.263,0,0,0-2.7-2.223c-.159-.159-.318-.159-.476-.318-.318-.318-.476-.635-.794-.953,0,.635-.159,1.27-.159,1.906a6.655,6.655,0,0,1-.635-2.382V16.77a3.458,3.458,0,0,0-.794-1.27,7.192,7.192,0,0,1,.476,2.541c-.159-.318-.159-.635-.318-.953,0,.159-.159.635-.159.794,0,.318-.159.635-.159.953a7.971,7.971,0,0,0-.318,1.906c-.159.635.159,1.27-.159,1.906a4.335,4.335,0,0,1-1.906,1.429c-2.064,1.429-4.129,2.541-5.717,4.605a6.538,6.538,0,0,0-1.588,3.335,4.076,4.076,0,0,1-.794,1.906c-.476.635-1.112.953-1.429,1.747-.318.635-.318,1.27-.635,1.747-.318.635-.953,1.588-.635,2.382l.159.159v.318c-.476.159-1.112.318-1.588.476a5.871,5.871,0,0,0-1.747.794c-.159,0-.159.159-.318.318s-.159.635-.159.794c.159.318.318.476.476.794a23.894,23.894,0,0,1,2.541,5.4.554.554,0,0,0,.159.318l.159.159h0v.318c-.159,0-.318.159-.476.159a6.723,6.723,0,0,1-.794,1.112c0,.159-.159.318-.159.476-.318.794-.476,1.27-.794,1.906,0,.159,0,.159-.159.318.318-.476.476-.953.794-1.429,0-.159.476-1.429.635-1.112v.318a11.092,11.092,0,0,1-1.747,3.335,1.213,1.213,0,0,0-.318.794c.476-.476.953-.794,1.429-1.27h.159l.159.159c-.159.794-1.429.953-1.747,1.747,0,.159-.159.318-.159.476-.159.635-.159,1.112-.318,1.747.159-.318.476-.476.635-.635.159,0,.318,0,.318.159s-.476.318-.476.476a3.192,3.192,0,0,0-.635,1.27,9.372,9.372,0,0,0-.318,2.223c.159-.476.318-1.112.476-1.588s.318,0,.159.318c0,.318-.318.635-.318,1.112a3.905,3.905,0,0,0,.159,2.7,7.867,7.867,0,0,1,.318,2.7c.318-.476.159-.953.159-1.429a15.407,15.407,0,0,1-.159-2.7c0-.159,0-.318.159-.318l.159.159a12.019,12.019,0,0,0,.159,2.382,22.536,22.536,0,0,0,.794-3.494v-.318a.156.156,0,0,1,.159-.159c.159.159-.159,1.112-.159,1.429a3.471,3.471,0,0,1,.476-.794,3.737,3.737,0,0,1,.318,1.27c0-.318,0-1.747.159-1.747a.156.156,0,0,1,.159.159,5.324,5.324,0,0,1,0,1.588,3.086,3.086,0,0,0,1.27,2.541c-.159-.318-.159-.635-.318-.953V64.57l.159-.159c.159,0,.159.159.159.318a2.217,2.217,0,0,0,.476,1.429,3.5,3.5,0,0,1-.159-1.27c0-.318.318,0,.318,0a2.014,2.014,0,0,1,.159.953,2.912,2.912,0,0,0,1.112,1.588A4.4,4.4,0,0,1,36.593,66c0-.159,0-.318.159-.159.159,0,.159.476.159.635.159.635.159,1.112.318,1.747A18.927,18.927,0,0,0,38.5,71.4c-.159-.476-.159-.953-.318-1.429,0-.159-.159-.476,0-.635.318-.159.476,1.588.476,1.747a2.138,2.138,0,0,0,.794,1.429,10.942,10.942,0,0,0-.476-1.27v-.159c.159-.476.476.635.476.794a10.948,10.948,0,0,0,.635,1.588s.159-.159.159,0a.955.955,0,0,1,.159.635c.159.159.159.318.318.476a.156.156,0,0,0,.159.159V73.94c0-.159.318-.159.318,0A4.359,4.359,0,0,0,41.516,76v-1.27l.159-.159a.156.156,0,0,0,.159.159c0,.635.159,1.429.159,2.064,0,.318.159.318.318.318.159.159.318.318.318.476,0-.159.159,0,.318,0a.554.554,0,0,1,.159.318c.159.159.159.476.318.476v-.318h0V77.91c0-.318-.159-.476-.159-.794,0-.159.318-.318.318-.159v0c0-.318.318,0,.318.159s.159.318.159.476v-.318a.156.156,0,0,1,.159-.159c.159,0,.159.159.159.318v.476c0,.159.159.159.159,0v-.318l-.476-.953c0-.159,0-.476.159-.318.159,0,.318.476.318.635v-.794h.159a.156.156,0,0,0,.159.159c.159.476.318.794.476,1.27,0,.159,0,.159.159.318v-.953c0-.159,0-.476.159-.318v.794c0,.159.159.318.159.476v-.476c0-.159.159,0,.318,0v.318a.342.342,0,0,0,.318.318h.318c.159,0,.159-.159.318-.318a.955.955,0,0,0,.159-.635h0c0-.635.476.318.476.635v.635a.342.342,0,0,0,.318.318V77.91c.159-.318.318.794.318.953,0-.159.159-.159.318-.159,0-.159.318-.318.318,0v.318c0,.318.159.635.476.635h0V79.18a.156.156,0,0,1,.159-.159c.159,0,.159,0,.159.159.159,0,.159,0,.159.159v.318c0,.159.159.159.159.318v.476c0,.318.159.635.476.635v-.635c0-.159,0-.159.159-.318.159,0,.159,0,.159.159v.635c.159-.318.318-.794.476-1.112,0-.159,0-.159.159-.159h.159c0,.159,0,.159-.159.318v.159a.583.583,0,0,1-.159.476,2.014,2.014,0,0,0-.159.953.156.156,0,0,0,.159.159c0-.318.159-.635.159-.953a.955.955,0,0,1,.159-.635c0-.159.159-.159.318,0s0,.476,0,.476a.156.156,0,0,1,.159.159v.318c.159-.318.318-.476.476-.794.159,0,.159-.159.318,0v.159a.156.156,0,0,0,.159.159c.159-.159,0-.476.159-.476a.156.156,0,0,1,.159.159v.318a9.055,9.055,0,0,0,.159,2.064c.318,0,.159-.159.159-.318s0-.159.159-.159a.156.156,0,0,1,.159.159V81.4c0-.159,0-.159.159-.318a.156.156,0,0,1,.159.159v1.112c.159.318.476-.159.476-.318a3.5,3.5,0,0,0,.159-1.27c0-.159,0-.318.159-.318h.159c.159,0,.159-.159.159-.318v-.318c.159,0,.159,0,.318.159s.159.476.318.635v.318a.156.156,0,0,1-.159.159v-.159a.554.554,0,0,0-.159-.318,2.561,2.561,0,0,0-.476,1.429l.318-.318.159-.159V81.4c0-.159.159-.159.318-.159a.156.156,0,0,0,.159-.159,1.167,1.167,0,0,0,.318-.953v-.159l.159-.159c.159,0,.159.159.159.318,0,0,.159-.476.318-.476,0-.159.318-.476.318-.159v.159l.159-.159c.159.159.159.318.318.476s.159.159.318.159l.476-.953a.159.159,0,1,1,.318,0v.159a1.24,1.24,0,0,1,.635-.635,2.257,2.257,0,0,1,.318.953,1.96,1.96,0,0,0,.635-1.27c0-.159,0-.159.159-.159s.318,0,.318.159V78.7c.159,0,.159.159.159.318.318-.159.635-.318.635-.635a.554.554,0,0,1,.159-.318c.159,0,.159.159,0,.318V78.7c.159-.318.159-.794.318-1.112a.156.156,0,0,1,.159-.159H62.8V76.64c0-.159.318-.318.318,0,0,.635-.159,1.112-.159,1.747a1.8,1.8,0,0,0,.476-1.27,4.4,4.4,0,0,1,.159-1.429c0-.159,0-.159.159-.159s.159.159.159.318c0,.635-.159,1.27-.159,1.906.159-.318.159-.635.318-.794a.156.156,0,0,1,.159-.159.156.156,0,0,0,.159-.159.554.554,0,0,0,.159-.318,3.418,3.418,0,0,0,0-1.27c0-.159,0-.476.159-.476s.159,0,.159.159V76.8c0-.159.318-.476.318-.635a1.32,1.32,0,0,1-.476-1.112V73.622h0V72.67c0-.159.318-.159.318,0a5.955,5.955,0,0,0,.159,1.747c0-.159.159,0,.318,0a3.737,3.737,0,0,0,.318-1.27V71.081c0-.159.318-.159.318,0v1.429c.159-.159.318-.476.476-.635v.476c.159-.159.159-.476.318-.635s.318-.318.318-.476v-.318c0-.476.159-.794.159-1.27,0-.159,0-.159.159-.318h.159v.159c0,.318-.159.794-.159,1.112.159-.159.318-.318.318-.476l.159.318a2.135,2.135,0,0,0,.318-1.429V67.429c0-.159,0-.318.159-.318s.159.159.159.318v1.112a2.992,2.992,0,0,1,.318-1.27l.318.318V66.159a.156.156,0,0,1,.159.159v1.747c.159-.318.318-.476.318-.794,0-.159.159-.318.159-.476v-.953a2.7,2.7,0,0,1,.159-1.112c.159-.159.318,0,.159.159-.318.318-.159.794,0,1.27.159-.318.318-.794.476-1.112.159.476.476.953.635,1.429a4.9,4.9,0,0,1-.159-1.588c0-.159,0-.318.159-.318l.159.159c0,.476.159.794.159,1.27,0-.635.794-.953.794-1.588a2.257,2.257,0,0,0-.318-.953c-.159-.159-.635-1.588-.318-1.588.159,0,.159.794.318.953.159.476.318.794.476,1.27,0-.159.318-.476.318-.635V63.3a2.6,2.6,0,0,1-.318-1.906c0-.159,0-.159.159-.318s.318.159.318.318a13.124,13.124,0,0,1,1.27,3.494A2.944,2.944,0,0,0,74.706,66c.159-.635.159-1.429.318-2.064a8.953,8.953,0,0,1,.635,1.906c.159-.635-.159-1.27-.159-1.906V63.3c0-.159-.159-.318-.159-.476.318.318-.318-.794,0-.953" transform="translate(-30.4 -15.5)"/></g><g transform="translate(76.711 44.302)"><path class="a" d="M55.6,35.094a7.331,7.331,0,0,1,1.429,2.382l-.794-1.27a.156.156,0,0,0-.159-.159c-.159,0,0,.318,0,.476a8.808,8.808,0,0,0,.953,1.27.156.156,0,0,0,.159-.159l.159-.159a21.346,21.346,0,0,1,1.906-3.811c.159-.159.318-.318.318-.476a.955.955,0,0,0-.159-.635.554.554,0,0,0-.318-.159l-1.429-.476c-.318-.159-.794-.159-1.112-.318-.159.635-.159,1.27-.318,1.747a3.068,3.068,0,0,1-.635,1.747" transform="translate(-55.6 -31.6)"/></g><g transform="translate(37.645 44.619)"><path class="a" d="M35.288,37.2v-.159c.159-.159.318-.159.476-.318s0-.318-.159-.318h-.159a1.2,1.2,0,0,0,.318-.635h0a.554.554,0,0,0-.159-.318h0c-.159-.318-.159-.794-.318-1.112v-.159a14.9,14.9,0,0,1-.953-2.382c-.476.159-.953.159-1.429.318l-1.429.476c-.159,0-.159.159-.318.159a.955.955,0,0,0-.159.635c0,.159.159.318.318.476a14.275,14.275,0,0,1,1.906,3.811c0,.159,0,.159.159.159a.156.156,0,0,1,.159.159c.159,0,.318.159.635.159a2.288,2.288,0,0,0,1.112-.953" transform="translate(-31 -31.8)"/></g><g transform="translate(75.599 45.413)"><path class="b" d="M56.012,32.3c.159.159.159.953.318.953h.159c1.429-1.27,2.858-.318,2.541-.318-2.064,0-2.223.953-2.382,1.112-.794.635-.318.318-.794,1.112a3.822,3.822,0,0,1-.953,1.27.825.825,0,0,1,.318-.635c.159-.159.159-.318.159-.635a1.821,1.821,0,0,0,.159-1.588Z" transform="translate(-54.9 -32.3)"/></g><g transform="translate(38.871 45.413)"><path class="b" d="M34.834,32.3c-.159.159-.159.953-.318.953h-.159c-1.429-1.27-2.858-.318-2.541-.318,2.064,0,2.223.953,2.382,1.112.794.635.318.318.794,1.112a3.822,3.822,0,0,0,.953,1.27.825.825,0,0,0-.318-.635c-.318-.318-.318-.476-.318-.635a1.821,1.821,0,0,1-.159-1.588Z" transform="translate(-31.772 -32.3)"/></g><g transform="translate(64.642 75.904)"><path d="M48,51.5h0" transform="translate(-48 -51.5)"/></g><g transform="translate(43.34 37.403)"><path class="a" d="M66.528,35.9c.159-.794-.794-1.747-1.588-2.064-.794-.476-1.906-.476-2.7-.953a.156.156,0,0,1-.159-.159v-.318c.159-.635.635-1.27.476-1.906a2.527,2.527,0,0,0-1.429-1.429c-.953-.476-1.747-1.112-2.7-1.588a.156.156,0,0,1-.159-.159h-.318c-2.382.953-4.764,1.906-6.987,3.017-.159,0-.159.159-.318.159s-.159-.159-.318-.159a54.529,54.529,0,0,0-6.987-3.017c-.159,0-.318-.159-.318,0a.156.156,0,0,0-.159.159c-.953.476-1.747,1.112-2.7,1.588A2.527,2.527,0,0,0,38.737,30.5a2.864,2.864,0,0,0,.476,1.906v.318l-.159.159c-.794.476-1.906.476-2.7.953-.953.476-1.747,1.27-1.588,2.064.159.635-.476,4.447,0,5.082.953,1.112,6.193,1.747,6.193,1.906-.159.635-4.129-.476-4.288,0-.159.318.635,1.906,1.27,2.382.476.318,1.588,0,2.7-.318a10.6,10.6,0,0,0-3.017,1.429,14.52,14.52,0,0,0-1.112,2.223A14.52,14.52,0,0,0,35.4,50.829a8.953,8.953,0,0,0-.635,1.906c2.7,2.7,4.605,5.717,7.781,8.1a1.35,1.35,0,0,1,.794-.476,1.19,1.19,0,0,1,.794-.159,11.391,11.391,0,0,0,3.335-.794c.476-.159.794-.318,1.27-.476a9.294,9.294,0,0,1,2.064-.318c.635.159,1.429.159,2.064.318.476.159.794.318,1.27.476a11.391,11.391,0,0,0,3.335.794c.318,0,.476.159.794.159.318.159.476.318.794.476,3.176-2.382,5.082-5.4,7.781-8.1a8.953,8.953,0,0,0-.635-1.906c-.318-.794-.794-1.429-1.112-2.223a14.521,14.521,0,0,0-1.112-2.223,10.6,10.6,0,0,0-3.017-1.429c1.112.318,2.223.635,2.7.318a3.564,3.564,0,0,0,1.27-2.382c-.159-.476-3.97.635-4.288,0,0,0,5.241-.635,6.193-1.906a48.41,48.41,0,0,1-.318-5.082" transform="translate(-34.586 -27.256)"/></g><g transform="translate(46.948 39.517)"><rect class="d" width="17.151" height="2.541" transform="matrix(0.18, -0.984, 0.984, 0.18, 0, 16.871)"/></g><g transform="translate(52.679 42.245)"><rect class="d" width="6.352" height="2.064" transform="matrix(0.18, -0.984, 0.984, 0.18, 0, 6.249)"/></g><g transform="translate(59.719 78.762)"><path class="e" d="M44.9,53.3v.318h0V53.3" transform="translate(-44.9 -53.3)"/></g><g transform="translate(82.586 65.67)"><path class="e" d="M59.3,45.126h0" transform="translate(-59.3 -45.056)"/></g><g transform="translate(42.091 48.519)"><path class="e" d="M33.8,34.326h0" transform="translate(-33.8 -34.256)"/></g><g transform="translate(60.195 50.394)"><path class="f" d="M45.2,38.078s1.747-2.382,2.7-2.541a4.849,4.849,0,0,1,3.652.794c.318.476.953,1.588.794,2.064-.318.476-1.747.635-2.382.635-1.27-.159-4.764-.953-4.764-.953" transform="translate(-45.2 -35.436)"/></g><g transform="translate(59.56 39.855)"><path class="b" d="M44.8,32.929c0,.159.635,1.906.953,2.858.159.318.159.794.318,1.112.318,1.588-.794.794-.476,2.382,1.27-1.429.159.476,1.27-.794l.635-.159.953.318a14.055,14.055,0,0,1,5.717,1.27,27.05,27.05,0,0,0,3.494-2.382c.476-1.112-2.541-2.7-1.906-3.652-1.27-.318-3.017,0-4.129-.476.159-.318.476-.635.635-.953a4.637,4.637,0,0,0-1.429.318c-.159,0-.318.159-.476.159-.159.159-.318.318-.476.318a29.211,29.211,0,0,1-3.494,2.7,17.125,17.125,0,0,1-.953-3.017,17.388,17.388,0,0,1,1.747-1.588c1.112-.953,2.064-1.747,3.017-2.541-.953.159-5.4,4.129-5.4,4.129" transform="translate(-44.8 -28.8)"/></g><g transform="translate(62.418 45.312)"><path class="c" d="M46.6,35.2a4.207,4.207,0,0,1,2.382-2.541,3.865,3.865,0,0,1,3.494,0c3.494,2.064,1.588,3.494-3.335,2.858L46.6,35.2" transform="translate(-46.6 -32.236)"/></g><g transform="translate(44.589 54.148)"><path class="b" d="M63.366,44.787c-.794-1.27-.794-2.858-1.429-4.288,0-.159-.159-.318-.318-.476s-.476-.159-.635-.318a16.751,16.751,0,0,0-3.017-.794,4.7,4.7,0,0,0-1.588-.318c-.318,0-6.829-.794-6.829-.794-.159,0-6.511.794-6.829.794a6.989,6.989,0,0,0-1.588.318,16.75,16.75,0,0,1-3.017.794,1.2,1.2,0,0,0-.635.318c-.159.159-.159.318-.318.476-.635,1.429-.794,2.858-1.429,4.288-.159.318-.476.635-.318,1.112,0,.159.159.318.318.476,1.588,2.064,3.176,4.129,4.605,6.352A10.64,10.64,0,0,0,43.2,51.616a14.844,14.844,0,0,1,6.193-1.27v0a14.844,14.844,0,0,1,6.193,1.27,8.934,8.934,0,0,0,2.858,1.112c1.429-2.223,3.017-4.288,4.605-6.352.159-.159.318-.318.318-.476.476-.476.159-.794,0-1.112" transform="translate(-35.373 -37.8)"/></g><g transform="translate(58.925 56.053)"><path class="c" d="M44.559,42.652,44.4,39.318s.953-.159,1.27-.159a18.965,18.965,0,0,1,7.3.476,7.741,7.741,0,0,1,1.112.476,1.236,1.236,0,0,1,.476,1.112L52.023,44.4l-.794-2.858-.476.953-2.223-.476Z" transform="translate(-44.4 -39)"/></g><g transform="translate(58.607 62.564)"><path class="c" d="M44.359,45.006c.159,0,3.97-.159,3.97-.159l1.429-.318.318.794L51.664,43.1s0,4.447.159,5.082a6.121,6.121,0,0,0-3.017-1.429,2.7,2.7,0,0,0-1.112-.159,25.73,25.73,0,0,0-3.494-.159,6.553,6.553,0,0,1,.159-1.429" transform="translate(-44.2 -43.1)"/></g><g transform="translate(48.761 56.124)"><path class="c" d="M47.369,42.626l1.588-3.335s-1.906-.159-2.223-.159a22.009,22.009,0,0,0-7.146.476,7.742,7.742,0,0,0-1.112.476A1.236,1.236,0,0,0,38,41.2l2.541,3.176.794-2.858.476.953,2.223-.635Z" transform="translate(-38 -39.044)"/></g><g transform="translate(51.461 62.564)"><path class="c" d="M47.164,45.006c-.159,0-3.97-.159-3.97-.159l-1.429-.318-.318.794L39.859,43.1s0,4.447-.159,5.082a6.121,6.121,0,0,1,3.017-1.429,2.7,2.7,0,0,1,1.112-.159,25.73,25.73,0,0,1,3.494-.159,6.553,6.553,0,0,0-.159-1.429" transform="translate(-39.7 -43.1)"/></g><g transform="translate(67.689 38.48)"><path class="f" d="M51.636,29.309c.476.476.794.794.794.953a8.557,8.557,0,0,1-.476,1.588c-.159-.159-.318-.635-.159-.635a1.026,1.026,0,0,0,.318-.794,11.933,11.933,0,0,0-2.064-2.382,7.051,7.051,0,0,1,1.588,1.27" transform="translate(-49.919 -27.934)"/></g><g transform="translate(50.642 50.394)"><path class="f" d="M46.355,38.078s-1.747-2.382-2.7-2.541A4.849,4.849,0,0,0,40,36.331c-.318.476-.953,1.588-.794,2.064.318.476,1.747.635,2.382.635,1.27-.159,4.764-.953,4.764-.953" transform="translate(-39.184 -35.436)"/></g><g transform="translate(45.534 39.855)"><path class="b" d="M48.882,32.929c0,.159-.635,1.906-.953,2.858-.159.318-.159.794-.318,1.112-.318,1.588.794.794.476,2.382-1.27-1.429-.159.476-1.27-.794l-.635-.159-.953.318a14.055,14.055,0,0,0-5.717,1.27,27.05,27.05,0,0,1-3.494-2.382c-.476-1.112,2.541-2.7,1.906-3.652,1.27-.318,3.017,0,4.129-.476-.159-.318-.476-.635-.635-.953a4.637,4.637,0,0,1,1.429.318c.159,0,.318.159.476.159.159.159.318.318.476.318a29.212,29.212,0,0,0,3.494,2.7,17.124,17.124,0,0,0,.953-3.017A17.388,17.388,0,0,0,46.5,31.341c-1.112-.953-2.064-1.747-3.017-2.541.953.159,5.4,4.129,5.4,4.129" transform="translate(-35.968 -28.8)"/></g><g transform="translate(47.928 45.312)"><path class="c" d="M45.137,35.2a4.207,4.207,0,0,0-2.382-2.541,3.865,3.865,0,0,0-3.494,0c-3.494,2.064-1.588,3.494,3.335,2.858l2.541-.318" transform="translate(-37.475 -32.236)"/></g><g transform="translate(47.808 38.48)"><path class="f" d="M38.194,29.309c-.476.476-.794.794-.794.953a8.557,8.557,0,0,0,.476,1.588c.159-.159.318-.635.159-.635a1.026,1.026,0,0,1-.318-.794,11.933,11.933,0,0,1,2.064-2.382,19.722,19.722,0,0,0-1.588,1.27" transform="translate(-37.4 -27.934)"/></g><g transform="translate(56.384 70.187)"><path class="a" d="M43.594,53.617c-.159-.953-.476-1.747-.635-2.7,0-.476-.159-.953-.159-1.429a5.4,5.4,0,0,1,.159-1.588,3.5,3.5,0,0,0,.159,1.27,7.971,7.971,0,0,0,.318,1.906v.794a8.55,8.55,0,0,1,.159,1.747" transform="translate(-42.8 -47.9)"/></g><g transform="translate(60.671 69.869)"><path class="a" d="M45.976,51.035c0-.635-.318-.953-.476-1.588v-.794a2.014,2.014,0,0,1,.159-.953v.794c0,.318.159.794.159,1.112v.476c.318.318.159.953.159.953" transform="translate(-45.5 -47.7)"/></g><g transform="translate(59.401 71.775)"><path class="a" d="M45.494,54.617c0-.953-.635-1.747-.794-2.7V50.488a5.642,5.642,0,0,1,.318-1.588v1.27a10.928,10.928,0,0,0,.318,2.064v.794c.318.318.159,1.588.159,1.588" transform="translate(-44.7 -48.9)"/></g><g transform="translate(54.319 22.228)"><path class="a" d="M42.453,23.258c-.159-.953-.635-1.588-.794-2.541a4.4,4.4,0,0,1-.159-1.429,5.4,5.4,0,0,1,.159-1.588,2.7,2.7,0,0,0,.159,1.112c.159.635.159,1.27.318,1.906v.318c0,.159,0,.318.159.318a10.833,10.833,0,0,1,.159,1.906" transform="translate(-41.5 -17.7)"/></g><g transform="translate(42.522 37.791)"><path class="a" d="M34.117,32.9c.159-.953-.159-1.747,0-2.541a4.637,4.637,0,0,1,.318-1.429A5.641,5.641,0,0,1,35.07,27.5a2.7,2.7,0,0,0-.159,1.112,7.732,7.732,0,0,0-.159,1.906v.635a13.018,13.018,0,0,0-.635,1.747" transform="translate(-34.071 -27.5)"/></g><g transform="translate(40.186 58.753)"><path class="a" d="M32.6,45.782a15.834,15.834,0,0,0,.318-2.541,10.942,10.942,0,0,1,.476-1.27,3.458,3.458,0,0,1,.794-1.27,2.944,2.944,0,0,0-.318,1.112c-.159.635-.318,1.27-.476,1.747v.318c0,.159,0,.318-.159.318a10.15,10.15,0,0,1-.635,1.588" transform="translate(-32.6 -40.7)"/></g><g transform="translate(57.178 21.275)"><path class="a" d="M44.729,19.482c-.318-.476-.794-.635-.953-.953a1.2,1.2,0,0,1-.318-.635A1.432,1.432,0,0,1,43.3,17.1c.159.159.159.318.318.476a2.788,2.788,0,0,0,.635.794l.159.159.159.159c-.159.159.159.794.159.794" transform="translate(-43.3 -17.1)"/></g><g transform="translate(53.525 35.885)"><path class="a" d="M42.429,28.682c-.318-.476-.794-.635-.953-.953a1.2,1.2,0,0,1-.318-.635A1.432,1.432,0,0,1,41,26.3c.159.159.159.318.318.476a2.788,2.788,0,0,0,.635.794l.159.159.159.159a3.23,3.23,0,0,0,.159.794" transform="translate(-41 -26.3)"/></g><g transform="translate(70.994 37.314)"><path class="a" d="M53.429,29.582c-.318-.476-.794-.635-.953-.953a1.2,1.2,0,0,1-.318-.635A1.432,1.432,0,0,1,52,27.2c.159.159.159.318.318.476a2.788,2.788,0,0,0,.635.794l.159.159.159.159c-.159.318.159.794.159.794" transform="translate(-52 -27.2)"/></g><g transform="translate(77.028 58.912)"><path class="a" d="M57.229,43.182c-.318-.476-.794-.635-.953-.953a1.2,1.2,0,0,1-.318-.635A1.432,1.432,0,0,1,55.8,40.8c.159.159.159.318.318.476a2.788,2.788,0,0,0,.635.794l.159.159.159.159a6.876,6.876,0,0,0,.159.794" transform="translate(-55.8 -40.8)"/></g><g transform="translate(57.019 23.181)"><path class="a" d="M44.788,25.6c-.318-1.27,0-2.382-.318-3.494l-.476-1.906A9.714,9.714,0,0,0,43.2,18.3c.159.476.318.953.476,1.588.159.794.318,1.747.476,2.541v.318a.583.583,0,0,0,.159.476,11.935,11.935,0,0,0,.476,2.382" transform="translate(-43.2 -18.3)"/></g><g transform="translate(74.964 37.473)"><path class="a" d="M56.088,34.6c-.318-1.27,0-2.382-.318-3.494l-.476-1.906A9.714,9.714,0,0,0,54.5,27.3c.159.476.318.953.476,1.588.159.794.318,1.747.476,2.541v.318a.583.583,0,0,0,.159.476,11.935,11.935,0,0,0,.476,2.382" transform="translate(-54.5 -27.3)"/></g><g transform="translate(74.646 65.74)"><path class="a" d="M55.888,52.4c-.318-1.27,0-2.382-.318-3.494l-.476-1.906A9.714,9.714,0,0,0,54.3,45.1c.159.476.318.953.476,1.588.159.794.318,1.747.476,2.541v.318a.583.583,0,0,0,.159.476,11.935,11.935,0,0,0,.476,2.382" transform="translate(-54.3 -45.1)"/></g><g transform="translate(57.428 30.482)"><path class="a" d="M44.636,28.3c-1.588-.794-1.112-5.558-1.112-5.4a10.093,10.093,0,0,0,1.112,5.4" transform="translate(-43.458 -22.898)"/></g><g transform="translate(68.386 31.911)"><path class="a" d="M51.536,29.2c-1.588-.794-1.112-5.558-1.112-5.4a10.093,10.093,0,0,0,1.112,5.4" transform="translate(-50.358 -23.798)"/></g><g transform="translate(52.731 27.781)"><path class="a" d="M40.5,25.013c1.112-.635,1.112-3.97.953-3.811a7.331,7.331,0,0,1-.953,3.811" transform="translate(-40.5 -21.197)"/></g><g transform="translate(45.903 35.403)"><path class="a" d="M36.2,29.813c1.112-.635,1.112-3.97.953-3.811a7.331,7.331,0,0,1-.953,3.811" transform="translate(-36.2 -25.997)"/></g><g transform="translate(42.969 63.829)"><path class="a" d="M35.381,47.713c-1.112-.635-1.112-3.97-.953-3.811a7.331,7.331,0,0,0,.953,3.811" transform="translate(-34.353 -43.897)"/></g><g transform="translate(73.785 67.324)"><path class="a" d="M54.936,51.5c-1.588-.794-1.112-5.558-1.112-5.4a12.275,12.275,0,0,0,1.112,5.4" transform="translate(-53.758 -46.098)"/></g><g transform="translate(76.552 56.513)"><path class="a" d="M55.5,39.306c1.747-.318,4.129,3.97,3.97,3.811a10.97,10.97,0,0,0-3.97-3.811" transform="translate(-55.5 -39.289)"/></g><g transform="translate(19.7 68.122)"><path class="b" d="M59.242,56.287,19.7,46.759v16.2l39.542,20.8L98.467,62.8V46.6Z" transform="translate(-19.7 -46.6)"/></g><g transform="translate(21.447 70.504)"><path class="c" d="M23.976,57.787,53.514,70.015V64.457L23.976,53.817v-1.27L57.643,62.869V56.993L20.8,48.1V60.963L57.643,80.5V74.62L23.976,59.057Z" transform="translate(-20.8 -48.1)"/></g><g transform="translate(60.036 73.522)"><path class="c" d="M65.745,50.794l-3.811,10.8-.318-9.687h0l-4.764,1.112h0L51.135,65.4V54.288L45.1,55.876v23.5l6.035-3.335,6.193-12.863.794,9.211,4.447-2.382L69.238,50Z" transform="translate(-45.1 -50)"/></g><g transform="translate(79.569 72.41)"><path class="c" d="M66.611,49.3l-3.017.794h0L57.4,69.309,61.052,67.4l2.858-9.369v7.781l2.7-1.429Z" transform="translate(-57.4 -49.3)"/></g><g transform="translate(90.209 70.346)"><path class="c" d="M68.705,61.975l2.064-1.112V54.511l-.953.318h0L70.77,53.4V48L64.1,49.588V64.357l2.382-1.27v-3.97L68.705,58v3.97Zm-2.382-5.717V52.764l2.223-.794V55.3Z" transform="translate(-64.1 -48)"/></g></g></svg>