<svg height="100%" width="100%" id="svg" viewBox="0 0 1440 500" xmlns="http://www.w3.org/2000/svg" class="transition duration-300 ease-in-out delay-150"><defs><linearGradient id="gradient"><stop offset="5%" stop-color="#f78da788"></stop><stop offset="95%" stop-color="#61045f88"></stop></linearGradient></defs><path d="M 0,500 C 0,500 0,166 0,166 C 76.30622009569379,185.58851674641147 152.61244019138758,205.17703349282297 262,198 C 371.3875598086124,190.82296650717703 513.8564593301435,156.8803827751196 616,166 C 718.1435406698565,175.1196172248804 779.9617224880383,227.30143540669854 862,221 C 944.0382775119617,214.69856459330146 1046.2966507177034,149.91387559808612 1146,131 C 1245.7033492822966,112.08612440191386 1342.8516746411483,139.04306220095694 1440,166 C 1440,166 1440,500 1440,500 Z" stroke="none" stroke-width="0" fill="url(#gradient)" class="transition-all duration-300 ease-in-out delay-150"></path><defs><linearGradient id="gradient"><stop offset="5%" stop-color="#f78da7ff"></stop><stop offset="95%" stop-color="#61045fff"></stop></linearGradient></defs><path d="M 0,500 C 0,500 0,333 0,333 C 119.53110047846889,327.0861244019139 239.06220095693777,321.17224880382776 327,314 C 414.9377990430622,306.82775119617224 471.28229665071785,298.3971291866029 552,316 C 632.7177033492821,333.6028708133971 737.8086124401912,377.2392344497607 847,366 C 956.1913875598088,354.7607655502393 1069.4832535885168,288.64593301435406 1169,274 C 1268.5167464114832,259.35406698564594 1354.2583732057415,296.17703349282294 1440,333 C 1440,333 1440,500 1440,500 Z" stroke="none" stroke-width="0" fill="url(#gradient)" class="transition-all duration-300 ease-in-out delay-150"></path></svg>