<svg height="100%" width="100%" id="svg" viewBox="0 0 1440 600" xmlns="http://www.w3.org/2000/svg" class="transition duration-300 ease-in-out delay-150"><defs><linearGradient id="gradient"><stop offset="5%" stop-color="#f78da788"></stop><stop offset="95%" stop-color="#61045f88"></stop></linearGradient></defs><path d="M 0,600 C 0,600 0,200 0,200 C 41.03608247422683,226.02245949926362 82.07216494845366,252.04491899852724 152,231 C 221.92783505154634,209.95508100147276 320.7474226804123,141.84278350515467 382,132 C 443.2525773195877,122.15721649484534 466.938144329897,170.58394698085422 517,195 C 567.061855670103,219.41605301914578 643.5,219.82142857142856 707,201 C 770.5,182.17857142857144 821.061855670103,144.13033873343153 882,148 C 942.938144329897,151.86966126656847 1014.2525773195875,197.65721649484536 1072,205 C 1129.7474226804125,212.34278350515464 1173.9278350515465,181.24079528718704 1233,174 C 1292.0721649484535,166.75920471281296 1366.0360824742268,183.37960235640648 1440,200 C 1440,200 1440,600 1440,600 Z" stroke="none" stroke-width="0" fill="url(#gradient)" class="transition-all duration-300 ease-in-out delay-150"></path><defs><linearGradient id="gradient"><stop offset="5%" stop-color="#f78da7ff"></stop><stop offset="95%" stop-color="#61045fff"></stop></linearGradient></defs><path d="M 0,600 C 0,600 0,400 0,400 C 60.39635493372607,428.64635493372606 120.79270986745215,457.2927098674521 173,451 C 225.20729013254785,444.7072901325479 269.22551546391753,403.4755154639176 337,407 C 404.77448453608247,410.5244845360824 496.30522827687776,458.8052282768777 556,451 C 615.6947717231222,443.1947717231223 643.5535714285714,379.30357142857144 692,378 C 740.4464285714286,376.69642857142856 809.4804860088366,437.98048600883646 878,457 C 946.5195139911634,476.01951399116354 1014.5244845360826,452.77448453608247 1081,439 C 1147.4755154639174,425.22551546391753 1212.4215758468338,420.9215758468336 1272,416 C 1331.5784241531662,411.0784241531664 1385.7892120765832,405.5392120765832 1440,400 C 1440,400 1440,600 1440,600 Z" stroke="none" stroke-width="0" fill="url(#gradient)" class="transition-all duration-300 ease-in-out delay-150"></path></svg>