<svg width="40" height="40" viewBox="0 0 40 40" fill="none" xmlns="http://www.w3.org/2000/svg">
<path d="M20 40C31.0457 40 40 31.0457 40 20C40 8.9543 31.0457 0 20 0C8.9543 0 0 8.9543 0 20C0 31.0457 8.9543 40 20 40Z" fill="#61045F"/>
<path d="M39.7371 23.2417L28.4897 11.9289L14.3455 13.8207L11.8947 30.7105L21.1504 39.9663C30.5722 39.4318 38.248 32.3763 39.7371 23.2417Z" fill="#61045F"/>
<path d="M23.1634 9.28943H11.8947V30.7105H16.4259V22.8285H23.1634C26.8587 22.8285 29.865 19.8222 29.865 16.1269V15.9918C29.865 12.2965 26.8587 9.28943 23.1634 9.28943V9.28943ZM25.3337 16.1269C25.3337 17.3238 24.3603 18.2972 23.1634 18.2972H16.4259V13.8207H23.1634C24.3603 13.8207 25.3337 14.7949 25.3337 15.9918V16.1269Z" fill="white"/>
<path d="M23.1633 9.28906H20V13.8203H23.1633C24.3602 13.8203 25.3336 14.7953 25.3336 15.9922V16.1266C25.3336 17.3234 24.3602 18.2969 23.1633 18.2969H20V22.8281H23.1633C26.8586 22.8281 29.8648 19.8219 29.8648 16.1266V15.9922C29.8648 12.2969 26.8586 9.28906 23.1633 9.28906V9.28906Z" fill="#D8D8D8"/>
</svg>
