<svg xmlns="http://www.w3.org/2000/svg" width="146" height="30" viewBox="0 0 146 30">
    <g fill="#5937B9" fill-rule="evenodd">
        <path d="M.297 0v29.539h72.561V0H.298zm17.248 15.478c0 .768-.238 1.477-.475 2.127-.238.65-.655 1.182-1.13 1.654a4.464 4.464 0 0 1-1.666 1.064 6.688 6.688 0 0 1-2.26.413c-.833 0-1.606-.118-2.26-.413A4.147 4.147 0 0 1 8.089 19.2c-.476-.473-.714-1.004-.952-1.654-.238-.65-.297-1.359-.297-2.127V7.68h2.379v7.74c0 .472 0 .944.119 1.299.119.413.297.709.535 1.004.238.296.535.473.892.65.357.177.773.236 1.25.236.475 0 .891-.059 1.248-.236s.654-.354.952-.65c.238-.295.535-.59.713-1.004.12-.414.298-.827.298-1.3V7.68h2.379v7.798h-.06zm10.23 5.199c-.238 0-.357-.059-.535-.177a1.022 1.022 0 0 1-.357-.355l-2.736-4.135a3.279 3.279 0 0 0-.357-.473c-.119-.118-.238-.177-.475-.177h-1.012v5.317h-2.379V7.68h3.866c.893 0 1.606.118 2.26.295.655.178 1.13.473 1.547.768.416.355.714.71.892 1.182.178.473.297.945.297 1.477 0 .413-.06.827-.178 1.24a4.461 4.461 0 0 1-.535 1.064c-.238.295-.536.59-.893.827-.356.236-.773.414-1.189.59.297.178.595.473.773.769l3.212 4.785h-2.2zm12.966-2.363c-.178.473-.535.886-.892 1.181-.416.355-.892.65-1.487.828a6.937 6.937 0 0 1-2.022.295h-5.115V7.68h4.698c.833 0 1.547.118 2.142.295.594.178 1.07.414 1.486.71.357.295.655.65.833 1.063.179.413.298.886.298 1.418 0 .295-.06.59-.12.886a3.176 3.176 0 0 1-.416.768 2.529 2.529 0 0 1-.713.65 5.289 5.289 0 0 1-1.012.472c1.785.414 2.677 1.359 2.677 2.836-.06.59-.179 1.122-.357 1.536zm11.836 2.363c-.179 0-.357-.118-.536-.177-.119-.118-.237-.118-.297-.236l-.952-2.54H45.44l-.952 2.48c-.06.119-.119.237-.297.355-.12.118-.298.118-.476.118H41.87L46.926 7.68h2.439l5.055 12.997h-1.843zm14.333 0h-1.486c-.179 0-.357-.059-.476-.118-.12-.06-.238-.177-.357-.355l-6.78-8.566c0 .177.06.355.119.532.059.177.059.354.059.532v7.975H55.61V7.68h1.427c.12 0 .179.06.238.06.06 0 .12.058.179.058.06 0 .119.06.178.118l.179.178 6.78 8.566c0-.237-.06-.414-.06-.591V7.68h2.38v12.997z"/>
        <path d="M37.648 12.997c.417-.295.654-.827.654-1.477 0-.65-.178-1.24-.594-1.536-.357-.295-.952-.532-1.785-.532h-2.32v4.136h2.201c.833 0 1.428-.296 1.844-.591zM48.413 10.811c-.06-.236-.178-.532-.238-.827-.059.295-.178.59-.237.827-.06.236-.179.59-.238.768l-1.606 4.372h4.104l-1.547-4.372c-.119-.177-.178-.472-.238-.768zM38.124 15.478a2.14 2.14 0 0 0-.714-.472 3.188 3.188 0 0 0-1.13-.237h-2.676v4.136h2.736a2.92 2.92 0 0 0 1.13-.237 2.14 2.14 0 0 0 .714-.472c.178-.177.297-.414.416-.65.06-.236.119-.473.119-.768 0-.295-.06-.532-.12-.768-.178-.177-.297-.414-.475-.532zM26.407 11.638c0-.65-.238-1.24-.654-1.595-.416-.354-1.07-.59-1.963-.59h-1.487v4.135h1.487c.476 0 .833.118 1.19 0s.595-.177.833-.414c.237-.177.356-.413.475-.65.06-.295.12-.531.12-.886zM72.263 0v29.539h73.156V0H72.263zm70.777 27.176H74.642V2.363h68.398v24.813z"/>
        <g>
            <path d="M84.515 15.95v4.727H82.79V7.975h3.747c.833 0 1.487.119 2.082.296.595.177 1.07.472 1.487.768.416.354.714.768.892 1.24.179.473.298 1.005.298 1.596 0 .59-.12 1.122-.298 1.595a4.732 4.732 0 0 1-.892 1.24c-.416.355-.892.65-1.487.827a6.937 6.937 0 0 1-2.022.296h-2.082v.118zm0-1.417h2.082c.476 0 .952-.06 1.308-.177.357-.118.714-.296.952-.532.238-.236.476-.532.595-.827.119-.295.178-.709.178-1.063 0-.827-.238-1.418-.773-1.89-.476-.473-1.249-.71-2.26-.71h-2.082v5.199zM97.362 20.677h-1.725V7.975h1.725zM103.31 15.95v4.727h-1.725V7.975h3.747c.833 0 1.487.119 2.081.296.595.177 1.071.472 1.487.768.417.354.714.768.893 1.24.178.473.297 1.005.297 1.596 0 .59-.119 1.122-.297 1.595a4.732 4.732 0 0 1-.893 1.24c-.416.355-.892.65-1.487.827a6.937 6.937 0 0 1-2.022.296h-2.081v.118zm0-1.417h2.081c.476 0 .952-.06 1.309-.177.357-.118.713-.296.951-.532.238-.236.476-.532.595-.827.12-.295.179-.709.179-1.063 0-.827-.238-1.418-.774-1.89-.475-.473-1.249-.71-2.26-.71h-2.081v5.199zM122.58 7.975v1.418h-6.126v4.195h4.996v1.359h-4.996v4.312h6.126v1.418h-7.851V7.975zM128.706 15.36v5.317h-1.725V7.975h3.628c.833 0 1.487.06 2.082.237.595.177 1.07.413 1.487.709.357.295.654.65.832 1.122.179.414.298.945.298 1.477 0 .473-.06.886-.238 1.24-.12.414-.357.769-.595 1.064-.297.295-.595.59-1.011.768-.416.236-.833.414-1.309.473.238.118.417.295.595.531l3.747 5.022h-1.546a.85.85 0 0 1-.714-.354l-3.33-4.55c-.12-.118-.238-.236-.357-.295-.12-.059-.298-.059-.536-.059h-1.308zm0-1.24h1.784c.535 0 .952-.06 1.309-.178.356-.118.713-.295.951-.531.238-.237.476-.473.595-.768.119-.296.178-.65.178-1.005 0-.768-.237-1.3-.773-1.713-.476-.354-1.249-.59-2.26-.59h-1.903v4.784h.119z"/>
        </g>
    </g>
</svg>
